<?xml version="1.0" standalone="no"?>
<svg xmlns:xlink="http://www.w3.org/1999/xlink" id="wave" style="transform:rotate(0deg); transition: 0.3s" viewBox="0 0 1440 270" version="1.1" xmlns="http://www.w3.org/2000/svg"><defs><linearGradient id="sw-gradient-0" x1="0" x2="0" y1="1" y2="0"><stop stop-color="rgba(30, 144, 255, 1)" offset="0%"/><stop stop-color="rgba(30, 144, 255, 1)" offset="100%"/></linearGradient></defs><path style="transform:translate(0, 0px); opacity:1" fill="url(#sw-gradient-0)" d="M0,162L60,135C120,108,240,54,360,45C480,36,600,72,720,112.5C840,153,960,198,1080,207C1200,216,1320,189,1440,157.5C1560,126,1680,90,1800,90C1920,90,2040,126,2160,126C2280,126,2400,90,2520,72C2640,54,2760,54,2880,85.5C3000,117,3120,180,3240,175.5C3360,171,3480,99,3600,76.5C3720,54,3840,81,3960,90C4080,99,4200,90,4320,85.5C4440,81,4560,81,4680,108C4800,135,4920,189,5040,202.5C5160,216,5280,189,5400,162C5520,135,5640,108,5760,112.5C5880,117,6000,153,6120,148.5C6240,144,6360,99,6480,103.5C6600,108,6720,162,6840,180C6960,198,7080,180,7200,175.5C7320,171,7440,180,7560,153C7680,126,7800,63,7920,40.5C8040,18,8160,36,8280,76.5C8400,117,8520,180,8580,211.5L8640,243L8640,270L8580,270C8520,270,8400,270,8280,270C8160,270,8040,270,7920,270C7800,270,7680,270,7560,270C7440,270,7320,270,7200,270C7080,270,6960,270,6840,270C6720,270,6600,270,6480,270C6360,270,6240,270,6120,270C6000,270,5880,270,5760,270C5640,270,5520,270,5400,270C5280,270,5160,270,5040,270C4920,270,4800,270,4680,270C4560,270,4440,270,4320,270C4200,270,4080,270,3960,270C3840,270,3720,270,3600,270C3480,270,3360,270,3240,270C3120,270,3000,270,2880,270C2760,270,2640,270,2520,270C2400,270,2280,270,2160,270C2040,270,1920,270,1800,270C1680,270,1560,270,1440,270C1320,270,1200,270,1080,270C960,270,840,270,720,270C600,270,480,270,360,270C240,270,120,270,60,270L0,270Z"/></svg>