<?xml version="1.0" standalone="no"?>
<svg xmlns:xlink="http://www.w3.org/1999/xlink" id="wave" style="transform:rotate(0deg); transition: 0.3s" viewBox="0 0 1440 490" version="1.1" xmlns="http://www.w3.org/2000/svg"><defs><linearGradient id="sw-gradient-0" x1="0" x2="0" y1="1" y2="0"><stop stop-color="rgba(30, 144, 255, 1)" offset="0%"/><stop stop-color="rgba(161, 198, 234, 1)" offset="100%"/></linearGradient></defs><path style="transform:translate(0, 0px); opacity:1" fill="url(#sw-gradient-0)" d="M0,98L60,155.2C120,212,240,327,360,334.8C480,343,600,245,720,245C840,245,960,343,1080,367.5C1200,392,1320,343,1440,326.7C1560,310,1680,327,1800,285.8C1920,245,2040,147,2160,147C2280,147,2400,245,2520,253.2C2640,261,2760,180,2880,171.5C3000,163,3120,229,3240,245C3360,261,3480,229,3600,253.2C3720,278,3840,359,3960,359.3C4080,359,4200,278,4320,245C4440,212,4560,229,4680,228.7C4800,229,4920,212,5040,187.8C5160,163,5280,131,5400,171.5C5520,212,5640,327,5760,343C5880,359,6000,278,6120,236.8C6240,196,6360,196,6480,228.7C6600,261,6720,327,6840,367.5C6960,408,7080,425,7200,359.3C7320,294,7440,147,7560,122.5C7680,98,7800,196,7920,236.8C8040,278,8160,261,8280,212.3C8400,163,8520,82,8580,40.8L8640,0L8640,490L8580,490C8520,490,8400,490,8280,490C8160,490,8040,490,7920,490C7800,490,7680,490,7560,490C7440,490,7320,490,7200,490C7080,490,6960,490,6840,490C6720,490,6600,490,6480,490C6360,490,6240,490,6120,490C6000,490,5880,490,5760,490C5640,490,5520,490,5400,490C5280,490,5160,490,5040,490C4920,490,4800,490,4680,490C4560,490,4440,490,4320,490C4200,490,4080,490,3960,490C3840,490,3720,490,3600,490C3480,490,3360,490,3240,490C3120,490,3000,490,2880,490C2760,490,2640,490,2520,490C2400,490,2280,490,2160,490C2040,490,1920,490,1800,490C1680,490,1560,490,1440,490C1320,490,1200,490,1080,490C960,490,840,490,720,490C600,490,480,490,360,490C240,490,120,490,60,490L0,490Z"/></svg>